<svg xmlns="http://www.w3.org/2000/svg" xmlns:xlink="http://www.w3.org/1999/xlink" aria-hidden="true" role="img" class="icon me-2 h-5 w-5" style=""   viewBox="0 0 256 256" data-v-cd102a71="" width="1"  height="1" ><g fill="#94A3B8"><path d="m224 56l-96 88l-96-88Z" opacity=".2" fill="#94A3B8"></path><path d="M224 48H32a8 8 0 0 0-8 8v136a16 16 0 0 0 16 16h176a16 16 0 0 0 16-16V56a8 8 0 0 0-8-8Zm-96 85.15L52.57 64h150.86ZM98.71 128L40 181.81V74.19Zm11.84 10.85l12 11.05a8 8 0 0 0 10.82 0l12-11.05l58 53.15H52.57ZM157.29 128L216 74.18v107.64Z" fill="#94A3B8"></path></g></svg>