<svg id="SvgjsSvg1118" width="100"  xmlns="http://www.w3.org/2000/svg" version="1.1" xmlns:xlink="http://www.w3.org/1999/xlink" xmlns:svgjs="http://svgjs.dev" style="overflow: hidden; top: -100%; left: -100%; position: absolute; opacity: 0;" height="100" ><defs id="SvgjsDefs1119"></defs><polyline id="SvgjsPolyline1120" points="0,0"></polyline><path id="SvgjsPath1121" d="M-1 230.67999954223632L-1 230.67999954223632C-1 230.67999954223632 72.19714343467454 230.67999954223632 72.19714343467454 230.67999954223632C72.19714343467454 230.67999954223632 142.9786566059241 230.67999954223632 142.9786566059241 230.67999954223632C142.9786566059241 230.67999954223632 213.76016977717364 230.67999954223632 213.76016977717364 230.67999954223632C213.76016977717364 230.67999954223632 284.5416829484232 230.67999954223632 284.5416829484232 230.67999954223632C284.5416829484232 230.67999954223632 355.3231961196728 230.67999954223632 355.3231961196728 230.67999954223632C355.3231961196728 230.67999954223632 426.1047092909223 230.67999954223632 426.1047092909223 230.67999954223632C426.1047092909223 230.67999954223632 494.0549619353219 230.67999954223632 494.0549619353219 230.67999954223632C494.0549619353219 230.67999954223632 562.0052145797215 230.67999954223632 562.0052145797215 230.67999954223632C562.0052145797215 230.67999954223632 629.9554672241211 230.67999954223632 629.9554672241211 230.67999954223632C629.9554672241211 230.67999954223632 629.9554672241211 230.67999954223632 629.9554672241211 230.67999954223632 "></path></svg>