<svg xmlns="http://www.w3.org/2000/svg" xmlns:xlink="http://www.w3.org/1999/xlink" aria-hidden="true" role="img" class="icon w-5 h-5" style=""   viewBox="0 0 256 256" data-v-cd102a71="" width="1"  height="1" ><g fill="#94A3B8"><path d="M208 56v144a8 8 0 0 1-8 8H56a8 8 0 0 1-8-8V56a8 8 0 0 1 8-8h144a8 8 0 0 1 8 8Z" opacity=".2" fill="#94A3B8"></path><path d="M200 40H56a16 16 0 0 0-16 16v144a16 16 0 0 0 16 16h144a16 16 0 0 0 16-16V56a16 16 0 0 0-16-16Zm0 80h-64V56h64Zm-80-64v64H56V56Zm-64 80h64v64H56Zm144 64h-64v-64h64v64Z" fill="#94A3B8"></path></g></svg>