<svg xmlns="http://www.w3.org/2000/svg" xmlns:xlink="http://www.w3.org/1999/xlink" aria-hidden="true" role="img" class="icon me-2 h-5 w-5" style=""   viewBox="0 0 256 256" data-v-cd102a71="" width="1"  height="1" ><g fill="#94A3B8"><path d="M232 96H24l104-64Z" opacity=".2" fill="#94A3B8"></path><path d="M24 104h24v64H32a8 8 0 0 0 0 16h192a8 8 0 0 0 0-16h-16v-64h24a8 8 0 0 0 4.19-14.81l-104-64a8 8 0 0 0-8.38 0l-104 64A8 8 0 0 0 24 104Zm40 0h32v64H64Zm80 0v64h-32v-64Zm48 64h-32v-64h32ZM128 41.39L203.74 88H52.26ZM248 208a8 8 0 0 1-8 8H16a8 8 0 0 1 0-16h224a8 8 0 0 1 8 8Z" fill="#94A3B8"></path></g></svg>