<svg xmlns="http://www.w3.org/2000/svg" xmlns:xlink="http://www.w3.org/1999/xlink" aria-hidden="true" role="img" class="icon h-5 w-5 text-white" style=""   viewBox="0 0 256 256" data-v-cd102a71="" width="1"  height="1" ><g fill="#FFFFFF"><path d="M112 80a32 32 0 1 1-32-32a32 32 0 0 1 32 32Zm64 32a32 32 0 1 0-32-32a32 32 0 0 0 32 32Zm-96 32a32 32 0 1 0 32 32a32 32 0 0 0-32-32Zm96 0a32 32 0 1 0 32 32a32 32 0 0 0-32-32Z" opacity=".2" fill="#FFFFFF"></path><path d="M80 40a40 40 0 1 0 40 40a40 40 0 0 0-40-40Zm0 64a24 24 0 1 1 24-24a24 24 0 0 1-24 24Zm96 16a40 40 0 1 0-40-40a40 40 0 0 0 40 40Zm0-64a24 24 0 1 1-24 24a24 24 0 0 1 24-24Zm-96 80a40 40 0 1 0 40 40a40 40 0 0 0-40-40Zm0 64a24 24 0 1 1 24-24a24 24 0 0 1-24 24Zm96-64a40 40 0 1 0 40 40a40 40 0 0 0-40-40Zm0 64a24 24 0 1 1 24-24a24 24 0 0 1-24 24Z" fill="#FFFFFF"></path></g></svg>