<svg xmlns="http://www.w3.org/2000/svg" xmlns:xlink="http://www.w3.org/1999/xlink" aria-hidden="true" role="img" class="icon me-2 h-5 w-5" style=""   viewBox="0 0 256 256" data-v-cd102a71="" width="1"  height="1" ><g fill="#94A3B8"><path d="M200 72v112a8 8 0 0 1-8 8H32a8 8 0 0 1-8-8V72a8 8 0 0 1 8-8h160a8 8 0 0 1 8 8Z" opacity=".2" fill="#94A3B8"></path><path d="M251.77 73a8 8 0 0 0-8.21.39L208 97.05V72a16 16 0 0 0-16-16H32a16 16 0 0 0-16 16v112a16 16 0 0 0 16 16h160a16 16 0 0 0 16-16v-25l35.56 23.71A8 8 0 0 0 248 184a8 8 0 0 0 8-8V80a8 8 0 0 0-4.23-7ZM192 184H32V72h160v112Zm48-22.95l-32-21.33v-23.44L240 95Z" fill="#94A3B8"></path></g></svg>