<svg xmlns="http://www.w3.org/2000/svg" xmlns:xlink="http://www.w3.org/1999/xlink" aria-hidden="true" role="img" class="icon me-2 h-5 w-5" style=""   viewBox="0 0 256 256" data-v-cd102a71="" width="1"  height="1" ><g fill="#94A3B8"><path d="M208 56v144a8 8 0 0 1-8 8h-72V48h72a8 8 0 0 1 8 8Z" opacity=".2" fill="#94A3B8"></path><path d="M200 40H56a16 16 0 0 0-16 16v144a16 16 0 0 0 16 16h144a16 16 0 0 0 16-16V56a16 16 0 0 0-16-16ZM56 56h64v144H56Zm144 144h-64V56h64v144Z" fill="#94A3B8"></path></g></svg>